<?xml version="1.0" encoding="iso-8859-1"?>
<!-- Generator: Adobe Illustrator 19.0.0, SVG Export Plug-In . SVG Version: 6.00 Build 0)  -->
<svg version="1.1" id="Capa_1" xmlns="http://www.w3.org/2000/svg" xmlns:xlink="http://www.w3.org/1999/xlink" x="0px" y="0px"
	 viewBox="0 0 495.94 495.94" style="enable-background:new 0 0 495.94 495.94;" xml:space="preserve">
<path style="fill:#A5C3D1;" d="M482.743,233.934c0,52.663-42.423,96.549-96.549,96.549H111.177
	c-52.663,0-96.549-42.423-96.549-96.549c0-48.274,35.109-87.771,80.457-95.086v-1.463c0-57.051,46.811-103.863,103.863-103.863
	c40.96,0,76.069,23.406,93.623,58.514c5.851-1.463,11.703-1.463,19.017-1.463c32.183,0,61.44,19.017,76.069,46.811
	C440.32,138.849,482.743,181.271,482.743,233.934z"/>
<g style="opacity:0.1;">
	<path style="fill:#030303;" d="M381.806,130.071c-5.851,0-10.24-1.463-16.091-1.463c-115.566,0-209.189,87.771-217.966,200.411
		h-36.571c-52.663,0-96.549-42.423-96.549-96.549c0-48.274,35.109-87.771,80.457-95.086l0,0
		c0-57.051,46.811-103.863,103.863-103.863c40.96,0,76.069,23.406,93.623,58.514c5.851-1.463,11.703-1.463,19.017-1.463
		C340.846,90.574,367.177,106.666,381.806,130.071z"/>
</g>
<path d="M386.194,345.111H111.177C49.737,345.111,0,295.374,0,233.934c0-49.737,33.646-93.623,80.457-106.789
	c5.851-61.44,57.051-108.251,118.491-108.251c42.423,0,78.994,21.943,100.937,57.051c2.926,0,7.314,0,10.24,0
	c35.109,0,67.291,17.554,84.846,48.274c57.051,4.389,100.937,52.663,100.937,109.714
	C497.371,295.374,447.634,345.111,386.194,345.111z M198.949,49.614c-49.737,0-89.234,39.497-89.234,87.771
	c0,7.314-5.851,14.629-11.703,16.091c-39.497,5.851-68.754,40.96-68.754,80.457c0,45.349,36.571,81.92,81.92,81.92h276.48
	c45.349,0,81.92-36.571,81.92-81.92s-36.571-81.92-80.457-81.92c-5.851,0-10.24-2.926-13.166-8.777
	c-11.703-24.869-36.571-39.497-62.903-39.497c-5.851,0-10.24,0-14.629,1.463c-7.314,1.463-13.166-1.463-16.091-7.314
	C263.314,68.631,232.594,49.614,198.949,49.614z"/>
<path d="M242.834,450.437c-1.463-7.314,4.389-14.629,13.166-16.091c23.406-2.926,45.349-13.166,61.44-29.257
	c39.497-39.497,39.497-105.326,0-144.823c-5.851-5.851-5.851-14.629,0-20.48c5.851-5.851,14.629-5.851,20.48,0
	c51.2,51.2,51.2,134.583,0,185.783c-20.48,21.943-49.737,35.109-78.994,38.034C251.611,465.066,244.297,459.214,242.834,450.437z"/>
<path d="M185.783,450.437c-11.703-5.851-23.406-14.629-33.646-23.406c-51.2-51.2-51.2-134.583,0-185.783
	c36.571-36.571,89.234-48.274,137.509-30.72c7.314,2.926,11.703,11.703,8.777,19.017c-2.926,7.314-11.703,11.703-19.017,8.777
	c-36.571-13.166-78.994-4.389-106.789,23.406c-39.497,39.497-39.497,105.326,0,144.823c7.314,7.314,16.091,14.629,26.331,19.017
	c7.314,4.389,10.24,13.166,5.851,19.017C201.874,450.437,193.097,453.363,185.783,450.437z"/>
<path d="M317.44,476.769l-62.903-13.166c-4.389-1.463-8.777-4.389-10.24-8.777c-1.463-4.389-1.463-10.24,2.926-14.629l39.497-51.2
	c4.389-5.851,14.629-7.314,20.48-2.926c5.851,4.389,7.314,14.629,2.926,20.48l-24.869,32.183l39.497,8.777
	c7.314,1.463,13.166,8.777,11.703,17.554C332.069,473.843,324.754,478.231,317.44,476.769z"/>
<path d="M215.04,258.803c-2.926-7.314-1.463-16.091,5.851-19.017l36.571-19.017L225.28,195.9c-5.851-4.389-7.314-14.629-2.926-20.48
	s14.629-7.314,20.48-2.926l51.2,38.034c4.389,2.926,5.851,7.314,5.851,13.166c0,4.389-2.926,8.777-7.314,11.703l-57.051,29.257
	C228.206,269.043,219.429,266.117,215.04,258.803z"/>
<g>
</g>
<g>
</g>
<g>
</g>
<g>
</g>
<g>
</g>
<g>
</g>
<g>
</g>
<g>
</g>
<g>
</g>
<g>
</g>
<g>
</g>
<g>
</g>
<g>
</g>
<g>
</g>
<g>
</g>
</svg>
