<?xml version="1.0" encoding="iso-8859-1"?>
<!-- Generator: Adobe Illustrator 19.0.0, SVG Export Plug-In . SVG Version: 6.00 Build 0)  -->
<svg version="1.1" id="Capa_1" xmlns="http://www.w3.org/2000/svg" xmlns:xlink="http://www.w3.org/1999/xlink" x="0px" y="0px"
	 viewBox="0 0 498.834 498.834" style="enable-background:new 0 0 498.834 498.834;" xml:space="preserve">
<g>
	<path style="fill:#030303;" d="M428.617,377.417c-8.777,0-14.629-7.314-13.166-16.091l2.926-48.274l-46.811,8.777
		c-7.314,1.463-16.091-2.926-17.554-11.703c-1.463-7.314,2.926-16.091,11.703-17.554l65.829-13.166
		c4.389-1.463,8.777,0,11.703,2.926c2.926,2.926,5.851,7.314,4.389,11.703l-4.389,67.291
		C443.246,371.566,437.394,377.417,428.617,377.417z"/>
	<path style="fill:#030303;" d="M73.143,430.08c-5.851-5.851-5.851-14.629,0-20.48l165.303-159.451
		c2.926-2.926,7.314-4.389,11.703-4.389c4.389,0,8.777,2.926,10.24,7.314l83.383,136.046l77.531-100.937
		c4.389-5.851,14.629-7.314,20.48-2.926c5.851,4.389,7.314,14.629,2.926,20.48l-90.697,118.491
		c-2.926,4.389-7.314,5.851-11.703,5.851s-8.777-2.926-11.703-7.314L245.76,285.257L93.623,431.543
		C87.771,435.931,78.994,435.931,73.143,430.08z"/>
</g>
<path style="fill:#A5C3D1;" d="M479.817,260.389c1.463-5.851,2.926-11.703,2.926-17.554c0-32.183-20.48-59.977-49.737-70.217
	c0-1.463,0-2.926,0-4.389c0-38.034-30.72-67.291-67.291-67.291c-5.851,0-10.24,0-14.629,1.463
	c-21.943-36.571-61.44-59.977-106.789-59.977c-49.737,0-93.623,29.257-112.64,71.68c-4.389,0-8.777-1.463-13.166-1.463
	c-55.589,0-102.4,45.349-102.4,102.4c0,16.091,4.389,32.183,10.24,45.349L479.817,260.389L479.817,260.389z"/>
<g style="opacity:0.1;">
	<path style="fill:#030303;" d="M136.046,260.389c45.349-67.291,121.417-112.64,209.189-112.64c30.72,0,59.977,5.851,87.771,16.091
		c-1.463-35.109-30.72-62.903-67.291-62.903c-5.851,0-10.24,0-14.629,1.463c-21.943-36.571-61.44-59.977-106.789-59.977
		c-49.737,0-93.623,29.257-112.64,71.68c-4.389,0-8.777-1.463-13.166-1.463c-55.589,0-102.4,45.349-102.4,102.4
		c0,16.091,4.389,32.183,10.24,45.349H136.046z"/>
</g>
<path style="fill:#030303;" d="M479.817,275.017H24.869c-5.851,0-10.24-2.926-13.166-8.777C2.926,250.149,0,232.594,0,213.577
	C0,149.211,52.663,96.549,117.029,96.549c1.463,0,2.926,0,5.851,0c24.869-43.886,71.68-70.217,121.417-70.217
	c45.349,0,87.771,21.943,114.103,58.514c2.926,0,5.851,0,8.777,0c43.886,0,78.994,33.646,81.92,77.531
	c29.257,14.629,49.737,45.349,49.737,78.994c0,7.314-1.463,13.166-2.926,21.943C492.983,270.629,487.131,275.017,479.817,275.017z
	 M35.109,245.76h433.006c0-1.463,0-1.463,0-2.926c0-24.869-16.091-48.274-39.497-55.589c-5.851-2.926-10.24-8.777-10.24-16.091
	c0-1.463,0-1.463,0-2.926c0-29.257-23.406-52.663-52.663-52.663c-4.389,0-7.314,0-11.703,1.463
	c-5.851,1.463-13.166-1.463-16.091-5.851c-20.48-32.183-55.589-52.663-95.086-52.663c-42.423,0-81.92,24.869-99.474,62.903
	c-2.926,5.851-8.777,8.777-14.629,8.777c-4.389-2.926-7.314-2.926-11.703-2.926c-48.274,0-87.771,39.497-87.771,87.771
	C29.257,225.28,30.72,235.52,35.109,245.76z"/>
<circle style="fill:#EF3956;" cx="343.771" cy="413.989" r="38.034"/>
<circle style="fill:#08A650;" cx="83.383" cy="419.84" r="38.034"/>
<circle style="fill:#FFCA19;" cx="248.686" cy="260.389" r="51.2"/>
<g>
	<path style="fill:#030303;" d="M343.771,466.651c-29.257,0-52.663-23.406-52.663-52.663s23.406-52.663,52.663-52.663
		s52.663,23.406,52.663,52.663C396.434,443.246,373.029,466.651,343.771,466.651z M343.771,389.12
		c-13.166,0-23.406,10.24-23.406,23.406s10.24,23.406,23.406,23.406s23.406-10.24,23.406-23.406
		C367.177,400.823,356.937,389.12,343.771,389.12z"/>
	<path style="fill:#030303;" d="M83.383,472.503c-29.257,0-52.663-23.406-52.663-52.663s23.406-52.663,52.663-52.663
		s52.663,23.406,52.663,52.663C137.509,449.097,112.64,472.503,83.383,472.503z M83.383,394.971
		c-13.166,0-23.406,10.24-23.406,23.406s10.24,23.406,23.406,23.406s23.406-10.24,23.406-23.406
		C108.251,406.674,96.549,394.971,83.383,394.971z"/>
	<path style="fill:#030303;" d="M248.686,326.217c-36.571,0-65.829-29.257-65.829-65.829s29.257-65.829,65.829-65.829
		s65.829,29.257,65.829,65.829S285.257,326.217,248.686,326.217z M248.686,223.817c-20.48,0-36.571,16.091-36.571,36.571
		c0,20.48,16.091,36.571,36.571,36.571s36.571-16.091,36.571-36.571C285.257,239.909,269.166,223.817,248.686,223.817z"/>
</g>
<g>
</g>
<g>
</g>
<g>
</g>
<g>
</g>
<g>
</g>
<g>
</g>
<g>
</g>
<g>
</g>
<g>
</g>
<g>
</g>
<g>
</g>
<g>
</g>
<g>
</g>
<g>
</g>
<g>
</g>
</svg>
