<?xml version="1.0" encoding="iso-8859-1"?>
<!-- Generator: Adobe Illustrator 19.0.0, SVG Export Plug-In . SVG Version: 6.00 Build 0)  -->
<svg version="1.1" id="Capa_1" xmlns="http://www.w3.org/2000/svg" xmlns:xlink="http://www.w3.org/1999/xlink" x="0px" y="0px"
	 viewBox="0 0 497.371 497.371" style="enable-background:new 0 0 497.371 497.371;" xml:space="preserve">
<rect id="SVGCleanerId_0" x="35.109" y="89.234" style="fill:#FFFFFF;" width="301.349" height="286.72"/>
<g>
	<rect id="SVGCleanerId_0_1_" x="35.109" y="89.234" style="fill:#FFFFFF;" width="301.349" height="286.72"/>
</g>
<path style="fill:#C0D0D6;" d="M334.994,93.623V49.737c0-19.017-14.629-33.646-33.646-33.646H68.754
	c-19.017,0-33.646,14.629-33.646,33.646v43.886H334.994z"/>
<path style="fill:#F1594C;" d="M35.109,371.566v77.531c0,19.017,14.629,33.646,33.646,33.646h232.594
	c19.017,0,33.646-14.629,33.646-33.646v-77.531L35.109,371.566L35.109,371.566z"/>
<g>
	<path style="fill:#030303;" d="M301.349,497.371H68.754c-26.331,0-48.274-21.943-48.274-48.274V48.274
		C20.48,21.943,42.423,0,68.754,0h232.594c26.331,0,48.274,21.943,48.274,48.274v400.823
		C349.623,475.429,329.143,497.371,301.349,497.371z M68.754,29.257c-10.24,0-19.017,8.777-19.017,19.017v400.823
		c0,10.24,8.777,19.017,19.017,19.017h232.594c10.24,0,19.017-8.777,19.017-19.017V48.274c0-10.24-8.777-19.017-19.017-19.017
		H68.754z"/>
	<rect x="35.109" y="356.937" style="fill:#030303;" width="301.349" height="29.257"/>
	<rect x="35.109" y="78.994" style="fill:#030303;" width="301.349" height="29.257"/>
</g>
<path style="fill:#FFFFFF;" d="M215.04,441.783h-58.514c-8.777,0-14.629-5.851-14.629-14.629s5.851-14.629,14.629-14.629h58.514
	c8.777,0,14.629,5.851,14.629,14.629S222.354,441.783,215.04,441.783z"/>
<path style="fill:#FFCA19;" d="M462.263,163.84c0,62.903-51.2,114.103-114.103,114.103c-11.703,0-23.406-1.463-33.646-5.851
	l-46.811,42.423v-70.217c-20.48-20.48-33.646-49.737-33.646-80.457c0-62.903,51.2-114.103,114.103-114.103
	C411.063,49.737,462.263,100.937,462.263,163.84z"/>
<g style="opacity:0.1;">
	<path style="fill:#030303;" d="M460.8,144.823c-20.48-30.72-55.589-49.737-95.086-49.737c-62.903,0-114.103,51.2-114.103,114.103
		c0,5.851,0,13.166,1.463,19.017c-11.703-17.554-19.017-39.497-19.017-62.903c0-62.903,51.2-114.103,114.103-114.103
		C405.211,49.737,452.023,90.697,460.8,144.823z"/>
</g>
<path style="fill:#010101;" d="M261.851,327.68c-5.851-2.926-8.777-7.314-8.777-13.166v-64.366
	c-21.943-23.406-33.646-54.126-33.646-86.309c0-71.68,58.514-128.731,128.731-128.731c71.68,0,128.731,58.514,128.731,128.731
	c0,71.68-58.514,128.731-128.731,128.731c-10.24,0-20.48-1.463-30.72-2.926l-40.96,36.571
	C272.091,329.143,266.24,330.606,261.851,327.68z M348.16,64.366c-55.589,0-99.474,45.349-99.474,99.474
	c0,26.331,10.24,51.2,29.257,70.217c2.926,2.926,4.389,5.851,4.389,10.24v36.571l21.943-20.48c4.389-2.926,8.777-4.389,14.629-2.926
	c8.777,2.926,19.017,4.389,29.257,4.389c55.589,0,99.474-45.349,99.474-99.474C447.634,109.714,403.749,64.366,348.16,64.366z"/>
<g>
	<path style="fill:#FFFFFF;" d="M324.754,152.137c2.926-2.926,2.926-5.851,2.926-8.777c0-2.926-1.463-5.851-2.926-7.314
		c-2.926-1.463-5.851-2.926-8.777-2.926c-5.851,0-11.703,2.926-16.091,10.24l-10.24-5.851c2.926-7.314,5.851-11.703,10.24-13.166
		c4.389-2.926,8.777-4.389,16.091-4.389c5.851,0,11.703,1.463,17.554,5.851c4.389,4.389,7.314,10.24,7.314,16.091
		c0,4.389-1.463,7.314-2.926,11.703c-1.463,2.926-5.851,8.777-11.703,14.629l-17.554,19.017h35.109v13.166h-52.663v-11.703
		l23.406-23.406C318.903,159.451,321.829,155.063,324.754,152.137z"/>
	<path style="fill:#FFFFFF;" d="M386.194,168.229V153.6h11.703v14.629h8.777v11.703h-8.777v19.017h-11.703v-19.017h-33.646v-11.703
		l27.794-46.811h14.629l-27.794,46.811H386.194z"/>
</g>
<g>
</g>
<g>
</g>
<g>
</g>
<g>
</g>
<g>
</g>
<g>
</g>
<g>
</g>
<g>
</g>
<g>
</g>
<g>
</g>
<g>
</g>
<g>
</g>
<g>
</g>
<g>
</g>
<g>
</g>
</svg>
