<?xml version="1.0" encoding="iso-8859-1"?>
<!-- Generator: Adobe Illustrator 19.0.0, SVG Export Plug-In . SVG Version: 6.00 Build 0)  -->
<svg version="1.1" id="Capa_1" xmlns="http://www.w3.org/2000/svg" xmlns:xlink="http://www.w3.org/1999/xlink" x="0px" y="0px"
	 viewBox="0 0 498.834 498.834" style="enable-background:new 0 0 498.834 498.834;" xml:space="preserve">
<circle style="fill:#C0D0D6;" cx="240.64" cy="236.983" r="220.891"/>
<path style="fill:#849DA9;" d="M461.531,236.983c0,122.88-99.474,220.891-220.891,220.891
	c-122.88,1.463-220.891-98.011-220.891-220.891l0,0c32.183,81.92,112.64,138.971,204.8,138.971
	c121.417,0,220.891-98.011,220.891-220.891C455.68,181.394,461.531,207.726,461.531,236.983z"/>
<path d="M240.64,473.966c-130.194,0-236.983-106.789-236.983-236.983S110.446,1.463,240.64,1.463s235.52,105.326,235.52,235.52
	S370.834,473.966,240.64,473.966z M240.64,30.72c-114.103,0-207.726,92.16-207.726,206.263s92.16,206.263,206.263,206.263
	s207.726-92.16,207.726-206.263S354.743,30.72,240.64,30.72z"/>
<path d="M240.64,473.966c-76.069,0-147.749-36.571-191.634-99.474C19.749,334.994,5.12,286.72,5.12,236.983
	c0-52.663,16.091-100.937,48.274-143.36C98.743,35.109,167.497,0,240.64,0c130.194,1.463,235.52,106.789,235.52,236.983
	S370.834,473.966,240.64,473.966z M240.64,30.72c-64.366,0-124.343,29.257-163.84,81.92
	c-27.794,36.571-42.423,78.994-42.423,124.343c0,43.886,13.166,84.846,38.034,119.954c39.497,54.126,102.4,86.309,168.229,86.309
	c114.103,0,206.263-92.16,206.263-206.263S354.743,30.72,240.64,30.72z"/>
<path style="fill:#E09C49;" d="M171.886,201.874v5.851c0,4.389,0,7.314-2.926,10.24c-1.463,1.463-4.389,1.463-5.851,2.926
	c-20.48,4.389-39.497,14.629-51.2,32.183c-11.703,16.091-14.629,36.571-17.554,55.589c-4.389,19.017-10.24,39.497-24.869,52.663
	c-2.926,1.463-5.851,4.389-8.777,5.851c-26.331-36.571-40.96-80.457-40.96-128.731c0-49.737,17.554-96.549,45.349-133.12
	c1.463,0,2.926,1.463,2.926,2.926c13.166,7.314,26.331,16.091,39.497,24.869c7.314,4.389,13.166,8.777,20.48,11.703l0,0
	C154.331,153.6,173.349,175.543,171.886,201.874z"/>
<path style="fill:#9B6327;" d="M92.891,332.069c-1.463,2.926-4.389,5.851-7.314,8.777c-11.703,10.24-30.72,10.24-40.96,0
	c-1.463-1.463-1.463-2.926-2.926-4.389c0-1.463,0-1.463-1.463-2.926l0,0c-8.777-29.257-14.629-58.514-17.554-87.771
	C37.303,279.406,62.171,310.126,92.891,332.069z"/>
<path d="M60.709,380.343c-4.389,0-8.777-1.463-11.703-5.851C19.749,334.994,5.12,286.72,5.12,236.983
	c0-52.663,16.091-100.937,48.274-143.36c4.389-5.851,11.703-7.314,19.017-4.389c1.463,0,2.926,1.463,2.926,1.463L76.8,92.16
	c5.851,5.851,11.703,10.24,19.017,14.629c7.314,4.389,13.166,8.777,20.48,14.629c5.851,4.389,11.703,7.314,17.554,10.24l0,0
	c0,0,0,0,1.463,0c32.183,11.703,52.663,39.497,52.663,70.217v5.851c0,4.389,0,14.629-7.314,20.48
	c-4.389,2.926-8.777,4.389-10.24,5.851h-1.463c-13.166,2.926-32.183,10.24-43.886,26.331c-7.314,11.703-11.703,26.331-14.629,43.886
	l-1.463,7.314c-4.389,20.48-10.24,45.349-30.72,61.44c-4.389,2.926-8.777,5.851-13.166,7.314
	C63.634,380.343,62.171,380.343,60.709,380.343z M68.023,122.88c-21.943,33.646-33.646,73.143-33.646,114.103
	c0,38.034,10.24,76.069,30.72,108.251c8.777-10.24,13.166-24.869,16.091-39.497l0-7.314c2.926-19.017,7.314-38.034,19.017-54.126
	c11.703-17.554,32.183-30.72,58.514-38.034v-4.389c0-19.017-13.166-36.571-33.646-43.886h-1.463
	c-8.777-2.926-16.091-8.777-23.406-13.166c-7.314-4.389-13.166-8.777-20.48-13.166C75.337,128.731,72.411,125.806,68.023,122.88z"/>
<path d="M426.423,118.491c-42.423,13.166-89.234,14.629-131.657,2.926c-26.331-7.314-54.126-20.48-81.92-16.091
	c-4.389,0-7.314,1.463-11.703,0c-5.851-1.463-7.314-7.314-10.24-11.703c-8.777-23.406-5.851-51.2,5.851-73.143
	c13.166-2.926,26.331-4.389,40.96-4.389C318.171,16.091,386.926,57.051,426.423,118.491z"/>
<path style="fill:#FFFFFF;" d="M426.423,118.491c-42.423,13.166-89.234,14.629-131.657,2.926
	c-26.331-7.314-54.126-20.48-81.92-16.091c-4.389,0-7.314,1.463-11.703,0c-5.851-1.463-7.314-7.314-10.24-11.703
	c-8.777-23.406-5.851-51.2,5.851-73.143c13.166-2.926,26.331-4.389,40.96-4.389C318.171,16.091,386.926,57.051,426.423,118.491z"/>
<path d="M356.206,143.36c-21.943,0-43.886-2.926-64.366-8.777c-5.851-1.463-11.703-4.389-19.017-5.851
	c-20.48-5.851-38.034-11.703-57.051-10.24c-8.777,1.463-13.166,1.463-19.017,0c-13.166-4.389-17.554-17.554-19.017-20.48
	c-8.777-27.794-5.851-59.977,8.777-84.846c1.463-4.389,5.851-5.851,10.24-7.314c14.629-2.926,29.257-4.389,43.886-4.389
	c80.457,0,155.063,40.96,198.949,109.714c2.926,4.389,2.926,8.777,1.463,13.166c-1.463,4.389-4.389,7.314-8.777,8.777
	C407.406,140.434,381.074,143.36,356.206,143.36z M226.011,89.234c19.017,0,38.034,5.851,55.589,11.703
	c5.851,1.463,11.703,4.389,17.554,5.851c33.646,8.777,68.754,10.24,103.863,2.926C363.52,59.977,305.006,30.72,240.64,30.72
	c-10.24,0-20.48,1.463-30.72,2.926c-7.314,17.554-8.777,38.034-2.926,55.589c0,1.463,1.463,2.926,1.463,2.926
	c1.463,0,1.463,0,2.926,0C215.771,90.697,220.16,89.234,226.011,89.234z"/>
<path style="fill:#77C587;" d="M480.549,484.206c-1.463-80.457-67.291-146.286-149.211-146.286s-147.749,65.829-149.211,146.286
	H480.549z"/>
<path style="fill:#08A650;" d="M462.994,419.84c-24.869-17.554-54.126-27.794-86.309-27.794
	c-62.903,0-115.566,38.034-137.509,93.623h-57.051c1.463-80.457,67.291-146.286,149.211-146.286
	C388.389,337.92,438.126,371.566,462.994,419.84z"/>
<circle style="fill:#F6E272;" cx="331.337" cy="258.926" r="80.457"/>
<path style="fill:#FFCA19;" d="M401.554,220.891c-11.703-7.314-24.869-10.24-39.497-10.24c-43.886,0-80.457,35.109-80.457,80.457
	c0,13.166,2.926,26.331,8.777,38.034c-24.869-13.166-40.96-39.497-40.96-70.217c0-43.886,35.109-80.457,80.457-80.457
	C362.057,178.469,388.389,194.56,401.554,220.891z"/>
<path d="M331.337,352.549c-52.663,0-95.086-42.423-95.086-95.086s42.423-95.086,95.086-95.086s95.086,42.423,95.086,95.086
	S384,352.549,331.337,352.549z M331.337,193.097c-36.571,0-65.829,29.257-65.829,65.829s29.257,65.829,65.829,65.829
	s65.829-29.257,65.829-65.829S367.909,193.097,331.337,193.097z"/>
<path d="M480.549,498.834H182.126c-4.389,0-7.314-1.463-10.24-4.389c-2.926-2.926-4.389-7.314-4.389-10.24
	c1.463-87.771,74.606-160.914,163.84-160.914c87.771,0,160.914,71.68,163.84,160.914c0,4.389-1.463,7.314-4.389,10.24
	C487.863,497.371,483.474,498.834,480.549,498.834z M198.217,469.577h266.24c-8.777-65.829-65.829-117.029-133.12-117.029
	S206.994,403.749,198.217,469.577z"/>
<g>
</g>
<g>
</g>
<g>
</g>
<g>
</g>
<g>
</g>
<g>
</g>
<g>
</g>
<g>
</g>
<g>
</g>
<g>
</g>
<g>
</g>
<g>
</g>
<g>
</g>
<g>
</g>
<g>
</g>
</svg>
