<?xml version="1.0" encoding="iso-8859-1"?>
<!-- Generator: Adobe Illustrator 19.0.0, SVG Export Plug-In . SVG Version: 6.00 Build 0)  -->
<svg version="1.1" id="Capa_1" xmlns="http://www.w3.org/2000/svg" xmlns:xlink="http://www.w3.org/1999/xlink" x="0px" y="0px"
	 viewBox="0 0 497.218 497.218" style="enable-background:new 0 0 497.218 497.218;" xml:space="preserve">
<path style="fill:#A5C3D1;" d="M479.817,126.735c8.777,26.331-7.314,55.589-33.646,62.903l-29.257-96.549
	C443.246,85.775,472.503,100.403,479.817,126.735z"/>
<path style="fill:#F6E272;" d="M298.423,362.255c-7.314,10.24-21.943,10.24-30.72,2.926c-35.109-27.794-42.423-73.143-45.349-89.234
	c1.463,0,4.389-1.463,5.851-1.463l36.571-11.703c0,1.463,1.463,2.926,1.463,4.389c0,0,2.926,40.96,29.257,62.903
	C304.274,338.849,305.737,352.015,298.423,362.255z"/>
<polygon style="fill:#FFCA19;" points="393.509,18.483 273.554,141.363 307.2,249.615 475.429,283.26 "/>
<path style="fill:#A5C3D1;" d="M273.554,141.363l-77.531,24.869c-30.72,8.777-46.811,40.96-38.034,71.68s40.96,46.811,71.68,38.034
	l78.994-24.869C307.2,249.615,285.257,177.935,273.554,141.363z"/>
<path style="fill:#849DA9;" d="M282.331,169.157l-64.366,20.48c-30.72,8.777-46.811,40.96-38.034,71.68
	c1.463,2.926,2.926,7.314,4.389,10.24c-11.703-7.314-21.943-17.554-26.331-32.183c-8.777-30.72,7.314-62.903,38.034-71.68
	l77.531-24.869C276.48,148.677,279.406,158.917,282.331,169.157z"/>
<path d="M472.503,297.889l-163.84-32.183l-74.606,23.406c-7.314,1.463-14.629,2.926-21.943,2.926l0,0
	c-32.183,0-58.514-20.48-68.754-49.737c-5.851-19.017-4.389-38.034,4.389-54.126c8.777-17.554,23.406-29.257,42.423-35.109
	l74.606-23.406L381.806,9.706c2.926-4.389,8.777-5.851,13.166-4.389s8.777,4.389,10.24,10.24l81.92,261.851
	C494.446,287.649,485.669,300.815,472.503,297.889z M307.2,234.986c1.463,0,1.463,0,2.926,0l143.36,27.794L386.194,46.277
	l-102.4,105.326c-1.463,1.463-4.389,2.926-5.851,4.389l-78.994,24.869c-10.24,2.926-19.017,10.24-24.869,20.48
	c-5.851,10.24-5.851,21.943-2.926,32.183c5.851,17.554,21.943,29.257,40.96,29.257l0,0c4.389,0,8.777,0,13.166-1.463l78.994-24.869
	C304.274,236.449,305.737,234.986,307.2,234.986z"/>
<path d="M258.926,375.42c-38.034-30.72-48.274-78.994-49.737-98.011c-1.463-7.314,4.389-14.629,11.703-16.091
	c1.463,0,2.926,0,2.926-1.463l36.571-11.703c7.314-2.926,16.091,1.463,17.554,8.777c1.463,2.926,1.463,5.851,1.463,8.777
	c0,0,2.926,35.109,23.406,52.663c16.091,13.166,17.554,35.109,5.851,51.2C296.96,387.123,273.554,388.586,258.926,375.42z
	 M239.909,286.186c4.389,17.554,13.166,48.274,36.571,67.291c2.926,2.926,7.314,1.463,10.24-1.463s1.463-7.314-1.463-10.24
	c-20.48-17.554-29.257-43.886-32.183-59.977L239.909,286.186z"/>
<path d="M447.634,205.729c-5.851,0-11.703-4.389-14.629-10.24l-30.72-98.011c0-2.926,0-7.314,1.463-10.24
	c1.463-2.926,4.389-5.851,8.777-7.314c33.646-10.24,71.68,8.777,81.92,42.423c10.24,35.109-8.777,71.68-42.423,81.92
	C450.56,205.729,449.097,205.729,447.634,205.729z M435.931,106.255l19.017,62.903c10.24-8.777,14.629-23.406,10.24-38.034
	C462.263,117.957,450.56,107.717,435.931,106.255z"/>
<path d="M307.2,264.243c-5.851,0-11.703-4.389-14.629-10.24l-33.646-109.714c-2.926-7.314,1.463-16.091,10.24-19.017
	c7.314-2.926,16.091,1.463,19.017,10.24l33.646,109.714c2.926,7.314-1.463,16.091-10.24,19.017
	C310.126,264.243,308.663,264.243,307.2,264.243z"/>
<path d="M273.554,315.443c-5.851,0-10.24-2.926-13.166-7.314c-4.389-7.314-1.463-16.091,5.851-20.48l17.554-8.777
	c7.314-4.389,16.091-1.463,20.48,5.851c4.389,7.314,1.463,16.091-5.851,20.48l-17.554,8.777
	C277.943,313.98,276.48,315.443,273.554,315.443z"/>
<rect x="14.629" y="239.375" style="fill:#77C587;" width="361.326" height="238.446"/>
<polygon style="fill:#FFFFFF;" points="377.417,477.82 17.554,477.82 149.211,365.18 197.486,410.529 244.297,365.18 "/>
<path d="M377.417,492.449L377.417,492.449H17.554c-5.851,0-11.703-4.389-13.166-10.24c-1.463-5.851,0-11.703,4.389-16.091
	L140.434,354.94c5.851-4.389,14.629-4.389,19.017,0l38.034,35.109l38.034-35.109c5.851-5.851,13.166-5.851,19.017,0l130.194,111.177
	c4.389,2.926,7.314,7.314,7.314,13.166C392.046,485.135,384.731,492.449,377.417,492.449z M57.051,463.192h279.406l-92.16-77.531
	l-38.034,36.571c-5.851,5.851-14.629,5.851-20.48,0l-38.034-36.571L57.051,463.192z"/>
<path d="M375.954,492.449H14.629C5.851,492.449,0,486.597,0,477.82V243.763c0-8.777,5.851-14.629,14.629-14.629
	s14.629,5.851,14.629,14.629v217.966h332.069V243.763c0-8.777,5.851-14.629,14.629-14.629c8.777,0,14.629,5.851,14.629,14.629
	v232.594C390.583,485.135,384.731,492.449,375.954,492.449z"/>
<polygon style="fill:#FFFFFF;" points="377.417,239.375 197.486,410.529 17.554,239.375 197.486,68.22 "/>
<path d="M197.486,425.157c-2.926,0-7.314-1.463-10.24-4.389L7.314,249.615c-2.926-2.926-4.389-7.314-4.389-10.24
	c0-2.926,1.463-7.314,4.389-10.24L187.246,57.98c5.851-5.851,14.629-5.851,20.48,0l179.931,171.154
	c2.926,2.926,4.389,7.314,4.389,10.24c0,2.926-1.463,7.314-4.389,10.24L207.726,422.232
	C204.8,423.695,200.411,425.157,197.486,425.157z M38.034,239.375l159.451,152.137l157.989-150.674L197.486,88.7L38.034,239.375z"/>
<path d="M239.909,211.58H153.6c-8.777,0-14.629-5.851-14.629-14.629s5.851-14.629,14.629-14.629h86.309
	c8.777,0,14.629,5.851,14.629,14.629S248.686,211.58,239.909,211.58z"/>
<path d="M248.686,261.317h-102.4c-8.777,0-14.629-5.851-14.629-14.629s5.851-14.629,14.629-14.629h102.4
	c8.777,0,14.629,5.851,14.629,14.629S256,261.317,248.686,261.317z"/>
<path d="M258.926,311.055h-122.88c-8.777,0-14.629-5.851-14.629-14.629c0-8.777,5.851-14.629,14.629-14.629h122.88
	c8.777,0,14.629,5.851,14.629,14.629C273.554,305.203,266.24,311.055,258.926,311.055z"/>
<g>
</g>
<g>
</g>
<g>
</g>
<g>
</g>
<g>
</g>
<g>
</g>
<g>
</g>
<g>
</g>
<g>
</g>
<g>
</g>
<g>
</g>
<g>
</g>
<g>
</g>
<g>
</g>
<g>
</g>
</svg>
