<?xml version="1.0" encoding="iso-8859-1"?>
<!-- Generator: Adobe Illustrator 19.0.0, SVG Export Plug-In . SVG Version: 6.00 Build 0)  -->
<svg version="1.1" id="Capa_1" xmlns="http://www.w3.org/2000/svg" xmlns:xlink="http://www.w3.org/1999/xlink" x="0px" y="0px"
	 viewBox="0 0 495.909 495.909" style="enable-background:new 0 0 495.909 495.909;" xml:space="preserve">
<path style="fill:#F15E75;" d="M443.246,341.577H54.126c-21.943,0-39.497,17.554-39.497,39.497s17.554,39.497,39.497,39.497h387.657
	c21.943,0,39.497-17.554,39.497-39.497C482.743,359.131,465.189,341.577,443.246,341.577z"/>
<g style="opacity:0.1;">
	<path style="fill:#030303;" d="M434.469,128V94.354c0-11.703-8.777-20.48-20.48-20.48H83.383c-10.24,0-19.017,8.777-19.017,20.48
		v35.109h370.103V128z"/>
</g>
<g>
	<path style="fill:#010101;" d="M434.469,356.206H64.366c-8.777,0-14.629-5.851-14.629-14.629V94.354
		c0-19.017,16.091-35.109,35.109-35.109h330.606c19.017,0,35.109,16.091,35.109,35.109v247.223
		C449.097,350.354,441.783,356.206,434.469,356.206z M78.994,326.949H419.84V94.354c0-2.926-2.926-5.851-5.851-5.851H83.383
		c-2.926,0-4.389,2.926-4.389,5.851V326.949z"/>
	<path style="fill:#010101;" d="M238.446,117.76c-5.851-5.851-5.851-14.629,0-20.48s14.629-5.851,20.48,0
		c5.851,5.851,5.851,14.629,0,20.48C254.537,123.611,244.297,123.611,238.446,117.76z"/>
</g>
<path style="fill:#FFFFFF;" d="M272.091,397.166h-45.349c-8.777,0-14.629-5.851-14.629-14.629s5.851-14.629,14.629-14.629h45.349
	c8.777,0,14.629,5.851,14.629,14.629S279.406,397.166,272.091,397.166z"/>
<path style="fill:#010101;" d="M443.246,436.663H54.126C23.406,436.663,0,411.794,0,382.537s24.869-54.126,54.126-54.126h387.657
	c30.72,0,54.126,24.869,54.126,54.126S472.503,436.663,443.246,436.663z M54.126,356.206c-14.629,0-24.869,11.703-24.869,24.869
	s11.703,24.869,24.869,24.869h387.657c14.629,0,24.869-11.703,24.869-24.869s-11.703-24.869-24.869-24.869H54.126z"/>
<path style="fill:#A5C3D1;" d="M370.103,255.269c0,20.48-16.091,36.571-36.571,36.571H175.543
	c-26.331,0-48.274-21.943-48.274-48.274c0-26.331,21.943-48.274,48.274-48.274c5.851,0,11.703,1.463,17.554,2.926
	c10.24-26.331,35.109-43.886,64.366-43.886c36.571,0,65.829,27.794,68.754,64.366h7.314
	C352.549,218.697,370.103,234.789,370.103,255.269z"/>
<g style="opacity:0.1;">
	<path style="fill:#030303;" d="M321.829,198.217c-8.777-2.926-19.017-4.389-27.794-4.389c-55.589,0-100.937,42.423-105.326,96.549
		h-11.703c-26.331,0-48.274-21.943-48.274-48.274s21.943-48.274,48.274-48.274c5.851,0,11.703,1.463,17.554,2.926
		c10.24-24.869,35.109-43.886,64.366-43.886C286.72,154.331,311.589,173.349,321.829,198.217z"/>
</g>
<path style="fill:#010101;" d="M333.531,305.006H175.543c-35.109,0-62.903-27.794-62.903-62.903s27.794-62.903,62.903-62.903
	c2.926,0,5.851,0,10.24,0c14.629-24.869,42.423-40.96,71.68-40.96c39.497,0,73.143,27.794,80.457,64.366
	c24.869,2.926,45.349,24.869,45.349,51.2C384.731,283.063,361.326,305.006,333.531,305.006z M175.543,208.457
	c-19.017,0-33.646,14.629-33.646,33.646s14.629,33.646,33.646,33.646h156.526c11.703,0,21.943-10.24,21.943-21.943
	s-10.24-21.943-21.943-21.943h-7.314c-7.314,0-14.629-5.851-14.629-13.166c-1.463-27.794-24.869-49.737-54.126-49.737
	c-21.943,0-42.423,13.166-49.737,35.109c-1.463,4.389-4.389,7.314-7.314,8.777c-2.926,1.463-7.314,1.463-11.703,0
	C184.32,209.92,179.931,208.457,175.543,208.457z"/>
<g>
</g>
<g>
</g>
<g>
</g>
<g>
</g>
<g>
</g>
<g>
</g>
<g>
</g>
<g>
</g>
<g>
</g>
<g>
</g>
<g>
</g>
<g>
</g>
<g>
</g>
<g>
</g>
<g>
</g>
</svg>
