<?xml version="1.0" encoding="iso-8859-1"?>
<!-- Generator: Adobe Illustrator 19.0.0, SVG Export Plug-In . SVG Version: 6.00 Build 0)  -->
<svg version="1.1" id="Capa_1" xmlns="http://www.w3.org/2000/svg" xmlns:xlink="http://www.w3.org/1999/xlink" x="0px" y="0px"
	 viewBox="0 0 497.371 497.371" style="enable-background:new 0 0 497.371 497.371;" xml:space="preserve">
<path style="fill:#849DA9;" d="M476.16,412.526c0,39.497-32.183,71.68-71.68,71.68H106.057c-49.737,0-90.697-40.96-90.697-90.697
	s40.96-90.697,90.697-90.697c5.851,0,10.24,0,16.091,1.463c17.554-43.886,61.44-74.606,111.177-74.606
	c40.96,0,76.069,20.48,98.011,51.2c7.314-2.926,14.629-4.389,21.943-4.389c35.109,0,64.366,29.257,64.366,64.366v1.463
	c21.943,2.926,40.96,17.554,51.2,36.571C473.234,389.12,476.16,399.36,476.16,412.526z"/>
<path style="fill:#A5C3D1;" d="M476.16,412.526c0,39.497-32.183,71.68-71.68,71.68H123.611
	c21.943-92.16,103.863-160.914,203.337-160.914c55.589,0,105.326,21.943,143.36,57.051C473.234,389.12,476.16,399.36,476.16,412.526
	z"/>
<path d="M408.869,497.371H108.983c-57.051,0-105.326-46.811-105.326-103.863s46.811-105.326,105.326-105.326
	c2.926,0,4.389,0,7.314,0c23.406-45.349,68.754-73.143,119.954-73.143c39.497,0,77.531,17.554,103.863,48.274
	c5.851-1.463,10.24-1.463,16.091-1.463c39.497,0,73.143,29.257,77.531,68.754c35.109,10.24,59.977,43.886,59.977,81.92
	C493.714,459.337,455.68,497.371,408.869,497.371z M108.983,317.44c-40.96,0-76.069,33.646-76.069,76.069
	c0,40.96,33.646,74.606,76.069,74.606h299.886c30.72,0,55.589-24.869,55.589-55.589c0-27.794-20.48-51.2-46.811-55.589
	c-7.314-1.463-11.703-7.314-11.703-14.629c0-27.794-21.943-51.2-49.737-51.2c-5.851,0-11.703,1.463-17.554,2.926
	c-5.851,2.926-13.166,0-17.554-5.851c-19.017-27.794-51.2-45.349-86.309-45.349c-42.423,0-81.92,24.869-98.011,65.829
	c-2.926,5.851-8.777,10.24-16.091,8.777C117.76,317.44,113.371,317.44,108.983,317.44z"/>
<circle style="fill:#F15E75;" cx="249.417" cy="248.686" r="46.811"/>
<path d="M249.417,310.126c-33.646,0-61.44-27.794-61.44-61.44s27.794-61.44,61.44-61.44s61.44,27.794,61.44,61.44
	S283.063,310.126,249.417,310.126z M249.417,216.503c-17.554,0-32.183,14.629-32.183,32.183s14.629,32.183,32.183,32.183
	S281.6,266.24,281.6,248.686S266.971,216.503,249.417,216.503z"/>
<path d="M378.149,81.92c-70.217-70.217-185.783-70.217-256,0c-5.851,5.851-14.629,5.851-20.48,0c-5.851-5.851-5.851-14.629,0-20.48
	c81.92-81.92,215.04-81.92,298.423,0c5.851,5.851,5.851,14.629,0,20.48C392.777,87.771,384,87.771,378.149,81.92z"/>
<path d="M332.8,127.269c-45.349-46.811-121.417-46.811-166.766,0c-5.851,5.851-14.629,5.851-20.48,0s-5.851-14.629,0-20.48
	c57.051-57.051,152.137-57.051,209.189,0c5.851,5.851,5.851,14.629,0,20.48C348.891,133.12,338.651,133.12,332.8,127.269z"/>
<path d="M288.914,171.154c-20.48-20.48-58.514-20.48-78.994,0c-5.851,5.851-14.629,5.851-20.48,0s-5.851-14.629,0-20.48
	c33.646-33.646,86.309-33.646,119.954,0c5.851,5.851,5.851,14.629,0,20.48C303.543,177.006,294.766,177.006,288.914,171.154z"/>
<g>
</g>
<g>
</g>
<g>
</g>
<g>
</g>
<g>
</g>
<g>
</g>
<g>
</g>
<g>
</g>
<g>
</g>
<g>
</g>
<g>
</g>
<g>
</g>
<g>
</g>
<g>
</g>
<g>
</g>
</svg>
