<?xml version="1.0" encoding="iso-8859-1"?>
<!-- Generator: Adobe Illustrator 19.0.0, SVG Export Plug-In . SVG Version: 6.00 Build 0)  -->
<svg version="1.1" id="Capa_1" xmlns="http://www.w3.org/2000/svg" xmlns:xlink="http://www.w3.org/1999/xlink" x="0px" y="0px"
	 viewBox="0 0 497.371 497.371" style="enable-background:new 0 0 497.371 497.371;" xml:space="preserve">
<path style="fill:#A5C3D1;" d="M452.023,127.269H342.309l-5.851-35.109c-1.463-10.24-10.24-19.017-21.943-19.017h-143.36
	c-10.24,0-20.48,7.314-21.943,19.017l-5.851,35.109H45.349c-17.554,0-30.72,13.166-30.72,30.72v235.52
	c0,17.554,13.166,30.72,30.72,30.72h406.674c17.554,0,30.72-13.166,30.72-30.72v-235.52
	C482.743,140.434,469.577,127.269,452.023,127.269z"/>
<g style="opacity:0.1;">
	<path style="fill:#030303;" d="M482.743,157.989v45.349c-43.886-23.406-92.16-36.571-144.823-36.571
		c-152.137,0-277.943,111.177-301.349,256c-11.703-4.389-21.943-16.091-21.943-29.257v-235.52c0-17.554,13.166-30.72,30.72-30.72
		h99.474l5.851-35.109c1.463-10.24,10.24-19.017,21.943-19.017h143.36c10.24,0,19.017,7.314,21.943,19.017l5.851,35.109h109.714
		C469.577,127.269,482.743,140.434,482.743,157.989z"/>
</g>
<g style="opacity:0.1;">
	<path style="fill:#030303;" d="M14.629,345.234v48.274c0,17.554,13.166,30.72,30.72,30.72h406.674
		c17.554,0,30.72-13.166,30.72-30.72v-48.274H14.629z"/>
</g>
<g>
	<path style="fill:#010101;" d="M452.023,438.857H45.349C20.48,438.857,0,418.377,0,393.509v-235.52
		c0-24.869,20.48-45.349,45.349-45.349h87.771l2.926-21.943c2.926-19.017,17.554-32.183,36.571-32.183h143.36
		c17.554,0,33.646,13.166,35.109,30.72l2.926,21.943h96.549c24.869,0,45.349,20.48,45.349,45.349v235.52
		C497.371,418.377,476.891,438.857,452.023,438.857z M45.349,141.897c-8.777,0-16.091,7.314-16.091,16.091v235.52
		c0,8.777,7.314,16.091,16.091,16.091h406.674c8.777,0,16.091-7.314,16.091-16.091v-235.52c0-8.777-7.314-16.091-16.091-16.091
		H342.309c-7.314,0-13.166-5.851-14.629-11.703l-4.389-35.109c0-2.926-2.926-5.851-7.314-5.851h-143.36
		c-2.926,0-5.851,2.926-7.314,5.851l-5.851,35.109c-1.463,7.314-7.314,11.703-14.629,11.703H45.349z"/>
	<path style="fill:#010101;" d="M482.743,359.863H14.629C5.851,359.863,0,354.011,0,345.234c0-8.777,5.851-14.629,14.629-14.629
		h468.114c8.777,0,14.629,5.851,14.629,14.629C497.371,354.011,491.52,359.863,482.743,359.863z"/>
</g>
<circle style="fill:#FFFFFF;" cx="248.686" cy="295.497" r="102.4"/>
<g style="opacity:0.1;">
	<path style="fill:#030303;" d="M343.771,258.926c-17.554-13.166-39.497-21.943-62.903-21.943c-57.051,0-102.4,45.349-102.4,102.4
		c0,13.166,2.926,24.869,7.314,36.571c-23.406-19.017-39.497-48.274-39.497-80.457c0-57.051,45.349-102.4,102.4-102.4
		C292.571,193.097,329.143,220.891,343.771,258.926z"/>
</g>
<circle style="fill:#FFCA19;" cx="248.686" cy="295.497" r="43.886"/>
<g style="opacity:0.1;">
	<path style="fill:#030303;" d="M285.257,273.554c-5.851-2.926-11.703-2.926-17.554-2.926c-27.794,0-49.737,21.943-49.737,49.737
		c0,2.926,0,4.389,0,7.314c-8.777-7.314-13.166-19.017-13.166-32.183c0-23.406,19.017-43.886,43.886-43.886
		C264.777,251.611,277.943,260.389,285.257,273.554z"/>
</g>
<g>
	<path style="fill:#010101;" d="M248.686,411.063c-64.366,0-117.029-52.663-117.029-117.029s52.663-117.029,117.029-117.029
		s117.029,52.663,117.029,117.029C365.714,359.863,313.051,411.063,248.686,411.063z M248.686,207.726
		c-48.274,0-87.771,39.497-87.771,87.771s39.497,87.771,87.771,87.771s87.771-39.497,87.771-87.771S296.96,207.726,248.686,207.726z
		"/>
	<path style="fill:#010101;" d="M288.183,141.897h-80.457c-8.777,0-14.629-5.851-14.629-14.629s5.851-14.629,14.629-14.629h80.457
		c8.777,0,14.629,5.851,14.629,14.629S295.497,141.897,288.183,141.897z"/>
</g>
<g>
</g>
<g>
</g>
<g>
</g>
<g>
</g>
<g>
</g>
<g>
</g>
<g>
</g>
<g>
</g>
<g>
</g>
<g>
</g>
<g>
</g>
<g>
</g>
<g>
</g>
<g>
</g>
<g>
</g>
</svg>
