<?xml version="1.0" encoding="iso-8859-1"?>
<!-- Generator: Adobe Illustrator 19.0.0, SVG Export Plug-In . SVG Version: 6.00 Build 0)  -->
<svg version="1.1" id="Capa_1" xmlns="http://www.w3.org/2000/svg" xmlns:xlink="http://www.w3.org/1999/xlink" x="0px" y="0px"
	 viewBox="0 0 497.371 497.371" style="enable-background:new 0 0 497.371 497.371;" xml:space="preserve">
<ellipse style="fill:#C0D0D6;" cx="248.686" cy="430.08" rx="102.4" ry="52.663"/>
<path style="fill:#A5C3D1;" d="M351.086,430.08c0,29.257-45.349,52.663-102.4,52.663c-55.589,0-102.4-23.406-102.4-52.663
	c19.017,10.24,45.349,16.091,73.143,16.091c57.051,0,102.4-23.406,102.4-52.663l0,0C340.846,402.286,351.086,415.451,351.086,430.08
	z"/>
<path style="fill:#030303;" d="M248.686,497.371c-67.291,0-117.029-29.257-117.029-67.291s49.737-67.291,117.029-67.291
	s117.029,29.257,117.029,67.291S315.977,497.371,248.686,497.371z M248.686,392.046c-49.737,0-87.771,20.48-87.771,38.034
	c0,17.554,38.034,38.034,87.771,38.034s87.771-20.48,87.771-38.034C336.457,412.526,298.423,392.046,248.686,392.046z"/>
<g>
	<path style="fill:#F15E75;" d="M408.137,174.08c0,87.771-159.451,248.686-159.451,248.686S89.234,261.851,89.234,174.08
		s71.68-159.451,159.451-159.451S408.137,86.309,408.137,174.08z"/>
	<path style="fill:#F15E75;" d="M392.046,103.863c-13.166-2.926-26.331-4.389-40.96-4.389c-108.251,0-197.486,74.606-222.354,174.08
		c-21.943-36.571-39.497-71.68-39.497-100.937c0-87.771,71.68-159.451,159.451-159.451C311.589,14.629,365.714,51.2,392.046,103.863
		z"/>
</g>
<path style="fill:#EF3956;" d="M392.046,103.863c-13.166-2.926-26.331-4.389-40.96-4.389c-108.251,0-197.486,74.606-222.354,174.08
	c-21.943-36.571-39.497-71.68-39.497-100.937c0-87.771,71.68-159.451,159.451-159.451C311.589,14.629,365.714,51.2,392.046,103.863z
	"/>
<path style="fill:#030303;" d="M248.686,437.394c-4.389,0-7.314-1.463-10.24-4.389c-7.314-7.314-163.84-165.303-163.84-258.926
	C74.606,77.531,152.137,0,248.686,0s174.08,77.531,174.08,174.08c0,93.623-156.526,251.611-163.84,258.926
	C256,435.931,253.074,437.394,248.686,437.394z M248.686,29.257c-80.457,0-144.823,64.366-144.823,144.823
	c0,62.903,96.549,177.006,144.823,228.206c48.274-51.2,144.823-165.303,144.823-228.206
	C393.509,93.623,329.143,29.257,248.686,29.257z"/>
<circle style="fill:#FFFFFF;" cx="248.686" cy="171.154" r="78.994"/>
<g style="opacity:0.4;">
	<path style="fill:#C0D0D6;" d="M294.034,106.789c-49.737,11.703-92.16,40.96-122.88,80.457c-1.463-5.851-1.463-10.24-1.463-16.091
		c0-43.886,35.109-78.994,78.994-78.994C266.24,92.16,282.331,98.011,294.034,106.789z"/>
</g>
<path style="fill:#030303;" d="M248.686,264.777c-51.2,0-93.623-42.423-93.623-93.623s42.423-93.623,93.623-93.623
	s93.623,42.423,93.623,93.623S299.886,264.777,248.686,264.777z M248.686,106.789c-35.109,0-64.366,29.257-64.366,64.366
	s29.257,64.366,64.366,64.366s64.366-29.257,64.366-64.366S283.794,106.789,248.686,106.789z"/>
<g>
</g>
<g>
</g>
<g>
</g>
<g>
</g>
<g>
</g>
<g>
</g>
<g>
</g>
<g>
</g>
<g>
</g>
<g>
</g>
<g>
</g>
<g>
</g>
<g>
</g>
<g>
</g>
<g>
</g>
</svg>
