<?xml version="1.0" encoding="iso-8859-1"?>
<!-- Generator: Adobe Illustrator 19.0.0, SVG Export Plug-In . SVG Version: 6.00 Build 0)  -->
<svg version="1.1" id="Capa_1" xmlns="http://www.w3.org/2000/svg" xmlns:xlink="http://www.w3.org/1999/xlink" x="0px" y="0px"
	 viewBox="0 0 497.371 497.371" style="enable-background:new 0 0 497.371 497.371;" xml:space="preserve">
<ellipse style="fill:#F15E75;" cx="249.892" cy="437.394" rx="121.417" ry="45.349"/>
<path style="fill:#030303;" d="M249.892,497.371c-67.291,0-136.046-20.48-136.046-58.514S182.6,378.88,249.892,378.88
	s136.046,20.48,136.046,59.977S317.183,497.371,249.892,497.371z M249.892,408.137c-68.754,0-106.789,21.943-106.789,30.72
	c0,8.777,38.034,29.257,106.789,29.257s106.789-21.943,106.789-29.257C356.68,431.543,318.646,408.137,249.892,408.137z"/>
<path style="fill:#FFCA19;" d="M400.566,144.823c5.851,45.349-7.314,87.771-33.646,118.491
	c-21.943,26.331-42.423,52.663-59.977,80.457l-57.051,93.623l-59.977-98.011c-16.091-27.794-36.571-52.663-57.051-76.069
	c-21.943-26.331-35.109-59.977-35.109-98.011c0-89.234,77.531-160.914,169.691-150.674
	C334.738,23.406,390.326,77.531,400.566,144.823z"/>
<g style="opacity:0.1;">
	<path style="fill:#030303;" d="M375.698,81.92c-2.926,0-5.851,0-7.314,0c-112.64,0-207.726,78.994-232.594,185.783
		c-1.463-1.463-1.463-2.926-2.926-2.926c-21.943-26.331-35.109-59.977-35.109-98.011c0-89.234,77.531-160.914,169.691-150.674
		C312.795,20.48,352.292,46.811,375.698,81.92z"/>
</g>
<path style="fill:#030303;" d="M249.892,453.486c-4.389,0-10.24-2.926-13.166-7.314l-59.977-98.011
	c-16.091-27.794-38.034-52.663-55.589-74.606c-24.869-29.257-39.497-67.291-39.497-106.789C81.663,74.606,156.269,0,248.429,0
	c5.851,0,13.166,0,19.017,1.463c74.606,8.777,136.046,67.291,146.286,141.897c7.314,46.811-5.851,93.623-36.571,130.194
	c-20.48,26.331-40.96,51.2-58.514,78.994l-55.589,93.623C260.132,450.56,254.28,453.486,249.892,453.486z M249.892,29.257
	c-76.069,0-137.509,61.44-137.509,137.509c0,32.183,11.703,62.903,32.183,87.771c19.017,21.943,40.96,49.737,58.514,77.531
	l46.811,77.531l45.349-73.143c17.554-29.257,39.497-55.589,61.44-81.92c24.869-30.72,35.109-68.754,29.257-106.789
	C377.16,87.771,327.423,38.034,265.983,30.72C260.132,29.257,255.743,29.257,249.892,29.257z"/>
<circle style="fill:#FFFFFF;" cx="249.892" cy="169.691" r="64.366"/>
<g style="opacity:0.1;">
	<path style="fill:#030303;" d="M308.406,143.36c-8.777-4.389-17.554-5.851-27.794-5.851c-35.109,0-64.366,29.257-64.366,64.366
		c0,8.777,1.463,17.554,5.851,26.331c-21.943-10.24-36.571-32.183-36.571-57.051c0-35.109,29.257-64.366,64.366-64.366
		C276.223,106.789,298.166,121.417,308.406,143.36z"/>
</g>
<path style="fill:#030303;" d="M249.892,248.686c-43.886,0-78.994-35.109-78.994-78.994s35.109-78.994,78.994-78.994
	s78.994,35.109,78.994,78.994S293.778,248.686,249.892,248.686z M249.892,121.417c-27.794,0-49.737,21.943-49.737,49.737
	s21.943,49.737,49.737,49.737s49.737-21.943,49.737-49.737S277.686,121.417,249.892,121.417z"/>
<g>
</g>
<g>
</g>
<g>
</g>
<g>
</g>
<g>
</g>
<g>
</g>
<g>
</g>
<g>
</g>
<g>
</g>
<g>
</g>
<g>
</g>
<g>
</g>
<g>
</g>
<g>
</g>
<g>
</g>
</svg>
