<?xml version="1.0" encoding="iso-8859-1"?>
<!-- Generator: Adobe Illustrator 19.0.0, SVG Export Plug-In . SVG Version: 6.00 Build 0)  -->
<svg version="1.1" id="Capa_1" xmlns="http://www.w3.org/2000/svg" xmlns:xlink="http://www.w3.org/1999/xlink" x="0px" y="0px"
	 viewBox="0 0 498.103 498.103" style="enable-background:new 0 0 498.103 498.103;" xml:space="preserve">
<rect x="59.611" y="183.223" style="fill:#A5C3D1;" width="375.954" height="288.183"/>
<path style="fill:#030303;" d="M437.029,486.034H59.611c-8.777,0-14.629-5.851-14.629-14.629V183.223
	c0-8.777,5.851-14.629,14.629-14.629h375.954c8.777,0,14.629,5.851,14.629,14.629v288.183
	C451.657,480.183,444.343,486.034,437.029,486.034z M74.24,456.777h346.697V197.851H74.24V456.777z"/>
<rect x="113.737" y="335.36" style="fill:#E09C49;" width="87.771" height="137.509"/>
<g style="opacity:0.1;">
	<rect x="59.611" y="183.223" style="fill:#030303;" width="375.954" height="43.886"/>
</g>
<path style="fill:#FFCA19;" d="M480.914,140.8l-21.943-87.771C454.583,38.4,441.417,28.16,426.789,28.16H69.851
	c-14.629,0-27.794,10.24-32.183,24.869L15.726,140.8c-5.851,20.48,10.24,40.96,32.183,40.96h402.286
	C470.674,181.76,486.766,162.743,480.914,140.8z"/>
<g style="opacity:0.1;">
	<path style="fill:#030303;" d="M450.194,140.8l-19.017-87.771C428.251,38.4,416.549,28.16,403.383,28.16H93.257
		c-13.166,1.463-24.869,11.703-27.794,26.331l-19.017,87.771c-4.389,20.48,8.777,40.96,27.794,40.96H422.4
		C441.417,181.76,454.583,162.743,450.194,140.8z"/>
</g>
<path style="fill:#030303;" d="M448.731,196.389H47.909c-14.629,0-27.794-7.314-38.034-19.017
	c-8.777-11.703-11.703-26.331-8.777-40.96L23.04,48.64c5.851-20.48,24.869-36.571,46.811-36.571h358.4
	c21.943,0,40.96,14.629,46.811,36.571l21.943,87.771c2.926,14.629,0,29.257-8.777,40.96
	C477.989,190.537,464.823,196.389,448.731,196.389z M69.851,44.251c-8.777,0-16.091,5.851-19.017,13.166l-21.943,87.771
	c-1.463,5.851,0,11.703,2.926,16.091c2.926,4.389,8.777,7.314,14.629,7.314h402.286c5.851,0,11.703-2.926,14.629-7.314
	c2.926-4.389,4.389-10.24,2.926-16.091l-21.943-87.771c-1.463-8.777-8.777-13.166-17.554-13.166H69.851z"/>
<path style="fill:#F15E75;" d="M390.217,180.297c0,58.514-105.326,160.914-105.326,160.914s-105.326-102.4-105.326-160.914
	S226.377,74.971,284.891,74.971S390.217,121.783,390.217,180.297z"/>
<circle style="fill:#FFFFFF;" cx="284.891" cy="178.834" r="46.811"/>
<g>
	<path style="fill:#030303;" d="M284.891,355.84c-4.389,0-7.314-1.463-10.24-4.389c-11.703-10.24-109.714-108.251-109.714-171.154
		c0-65.829,54.126-119.954,119.954-119.954s119.954,54.126,119.954,119.954c0,62.903-99.474,160.914-109.714,171.154
		C292.206,354.377,287.817,355.84,284.891,355.84z M284.891,89.6c-49.737,0-90.697,40.96-90.697,90.697
		c0,38.034,58.514,106.789,90.697,140.434c32.183-33.646,90.697-100.937,90.697-140.434C375.589,130.56,334.629,89.6,284.891,89.6z"
		/>
	<path style="fill:#030303;" d="M284.891,240.274c-33.646,0-61.44-27.794-61.44-61.44s27.794-61.44,61.44-61.44
		s61.44,27.794,61.44,61.44S318.537,240.274,284.891,240.274z M284.891,145.189c-17.554,0-32.183,14.629-32.183,32.183
		s14.629,32.183,32.183,32.183c17.554,0,32.183-14.629,32.183-32.183S302.446,145.189,284.891,145.189z"/>
	<path style="fill:#030303;" d="M202.971,486.034H115.2c-8.777,0-14.629-5.851-14.629-14.629V333.897
		c0-8.777,5.851-14.629,14.629-14.629h87.771c8.777,0,14.629,5.851,14.629,14.629v137.509
		C217.6,480.183,210.286,486.034,202.971,486.034z M128.366,456.777h58.514V348.526h-58.514V456.777z"/>
	<path style="fill:#030303;" d="M461.897,486.034H34.743c-8.777,0-14.629-5.851-14.629-14.629c0-8.777,5.851-14.629,14.629-14.629
		H463.36c8.777,0,14.629,5.851,14.629,14.629S470.674,486.034,461.897,486.034z"/>
</g>
<g>
</g>
<g>
</g>
<g>
</g>
<g>
</g>
<g>
</g>
<g>
</g>
<g>
</g>
<g>
</g>
<g>
</g>
<g>
</g>
<g>
</g>
<g>
</g>
<g>
</g>
<g>
</g>
<g>
</g>
</svg>
