<?xml version="1.0" encoding="iso-8859-1"?>
<!-- Generator: Adobe Illustrator 19.0.0, SVG Export Plug-In . SVG Version: 6.00 Build 0)  -->
<svg version="1.1" id="Capa_1" xmlns="http://www.w3.org/2000/svg" xmlns:xlink="http://www.w3.org/1999/xlink" x="0px" y="0px"
	 viewBox="0 0 500.297 500.297" style="enable-background:new 0 0 500.297 500.297;" xml:space="preserve">
<path style="fill:#F15E75;" d="M484.206,281.6v-61.44l-62.903-20.48c-2.926-11.703-7.314-21.943-13.166-32.183l30.72-59.977
	l-43.886-43.886l-59.977,30.72c-10.24-5.851-21.943-10.24-32.183-13.166l-20.48-62.903h-61.44l-21.943,61.44
	c-11.703,2.926-21.943,7.314-32.183,13.166l-59.977-29.257L62.903,107.52l30.72,59.977c-5.851,10.24-10.24,21.943-13.166,32.183
	l-62.903,20.48v61.44l61.44,20.48c2.926,11.703,7.314,21.943,13.166,32.183L61.44,394.24l43.886,43.886l59.977-30.72
	c10.24,5.851,21.943,10.24,32.183,13.166l20.48,62.903h61.44l20.48-62.903c11.703-2.926,21.943-7.314,32.183-13.166l59.977,30.72
	l43.886-43.886l-30.72-59.977c5.851-10.24,10.24-21.943,13.166-32.183L484.206,281.6z"/>
<path style="fill:#EF3956;" d="M434.469,104.594c-52.663,14.629-106.789,39.497-156.526,76.069
	C181.394,250.88,119.954,345.966,102.4,433.737L62.903,394.24l29.257-59.977c-5.851-10.24-10.24-21.943-13.166-32.183L16.091,281.6
	v-61.44l62.903-20.48c2.926-11.703,7.314-21.943,13.166-32.183L62.903,107.52l43.886-43.886l59.977,30.72
	c10.24-5.851,21.943-10.24,33.646-13.166l20.48-62.903h61.44l19.017,61.44c11.703,2.926,21.943,8.777,32.183,13.166l59.977-30.72
	L434.469,104.594z"/>
<path style="fill:#030303;" d="M280.869,499.566h-61.44c-5.851,0-11.703-4.389-13.166-10.24l-19.017-55.589
	c-7.314-2.926-14.629-5.851-21.943-8.777l-52.663,26.331c-5.851,2.926-11.703,1.463-16.091-2.926L52.663,404.48
	c-4.389-4.389-5.851-11.703-2.926-17.554l26.331-52.663c-2.926-7.314-5.851-14.629-8.777-21.943L10.24,293.303
	C4.389,291.84,0,285.989,0,280.137v-61.44c0-5.851,4.389-11.703,10.24-13.166l57.051-17.554c2.926-7.314,5.851-14.629,8.777-21.943
	l-26.331-52.663c-2.926-5.851-1.463-11.703,2.926-16.091l43.886-43.886c4.389-4.389,11.703-5.851,17.554-2.926L166.766,76.8
	c7.314-2.926,14.629-5.851,21.943-8.777l19.017-57.051c1.463-5.851,7.314-10.24,13.166-10.24h61.44
	c5.851,0,11.703,4.389,13.166,10.24l17.554,57.051c7.314,2.926,14.629,5.851,21.943,8.777l52.663-26.331
	c5.851-2.926,11.703-1.463,16.091,2.926l43.886,43.886c4.389,4.389,5.851,11.703,2.926,17.554l-26.331,52.663
	c2.926,7.314,5.851,14.629,8.777,21.943l57.051,19.017c5.851,1.463,10.24,7.314,10.24,13.166v61.44
	c0,5.851-4.389,11.703-10.24,13.166l-57.051,17.554c-2.926,7.314-5.851,14.629-8.777,21.943l26.331,52.663
	c2.926,5.851,1.463,13.166-2.926,17.554l-43.886,43.886c-4.389,4.389-11.703,5.851-17.554,2.926l-52.663-26.331
	c-7.314,2.926-14.629,5.851-21.943,8.777l-19.017,57.051C292.571,495.177,286.72,499.566,280.869,499.566z M229.669,470.309h39.497
	l17.554-52.663c1.463-4.389,4.389-7.314,10.24-8.777c10.24-2.926,20.48-7.314,30.72-13.166c4.389-2.926,8.777-2.926,13.166,0
	l49.737,24.869l27.794-27.794l-24.869-49.737c-1.463-4.389-1.463-8.777,0-13.166c4.389-8.777,8.777-19.017,13.166-30.72
	c1.463-4.389,4.389-8.777,8.777-10.24l52.663-17.554v-39.497l-52.663-17.554c-4.389-1.463-7.314-4.389-8.777-10.24
	c-2.926-10.24-7.314-20.48-13.166-30.72c-2.926-4.389-2.926-8.777,0-13.166l24.869-49.737l-27.794-27.794l-49.737,24.869
	c-4.389,1.463-8.777,1.463-13.166,0c-8.777-4.389-19.017-8.777-30.72-13.166c-4.389-1.463-8.777-4.389-10.24-8.777l-17.554-52.663
	h-39.497l-17.554,52.663c-1.463,4.389-4.389,7.314-10.24,8.777c-10.24,2.926-20.48,7.314-30.72,13.166
	c-4.389,2.926-8.777,2.926-13.166,0l-48.274-26.331l-29.257,29.257l24.869,49.737c1.463,4.389,1.463,8.777,0,13.166
	c-4.389,8.777-8.777,19.017-13.166,30.72c-1.463,4.389-4.389,8.777-8.777,10.24L30.72,231.863v39.497l52.663,17.554
	c4.389,1.463,7.314,4.389,8.777,10.24c2.926,10.24,7.314,20.48,13.166,30.72c2.926,4.389,2.926,8.777,0,13.166l-24.869,49.737
	l27.794,27.794l49.737-24.869c4.389-1.463,8.777-1.463,13.166,0c8.777,4.389,19.017,8.777,30.72,13.166
	c4.389,1.463,8.777,4.389,10.24,8.777L229.669,470.309z"/>
<circle style="fill:#FFFFFF;" cx="250.149" cy="250.88" r="89.234"/>
<g style="opacity:0.4;">
	<path style="fill:#C0D0D6;" d="M289.646,171.886c-4.389,2.926-8.777,5.851-13.166,8.777
		c-43.886,32.183-80.457,68.754-108.251,106.789c-5.851-11.703-8.777-23.406-8.777-36.571c0-49.737,39.497-89.234,89.234-89.234
		C264.777,161.646,277.943,166.034,289.646,171.886z"/>
</g>
<path d="M250.149,354.743c-57.051,0-103.863-46.811-103.863-103.863s46.811-103.863,103.863-103.863s103.863,46.811,103.863,103.863
	S307.2,354.743,250.149,354.743z M250.149,176.274c-40.96,0-74.606,33.646-74.606,74.606s33.646,74.606,74.606,74.606
	s74.606-33.646,74.606-74.606S291.109,176.274,250.149,176.274z"/>
<path style="fill:#030303;" d="M250.149,354.743c-57.051,0-103.863-46.811-103.863-103.863s46.811-103.863,103.863-103.863
	s103.863,46.811,103.863,103.863S307.2,354.743,250.149,354.743z M250.149,176.274c-40.96,0-74.606,33.646-74.606,74.606
	s33.646,74.606,74.606,74.606s74.606-33.646,74.606-74.606S291.109,176.274,250.149,176.274z"/>
<g>
</g>
<g>
</g>
<g>
</g>
<g>
</g>
<g>
</g>
<g>
</g>
<g>
</g>
<g>
</g>
<g>
</g>
<g>
</g>
<g>
</g>
<g>
</g>
<g>
</g>
<g>
</g>
<g>
</g>
</svg>
