<?xml version="1.0" encoding="iso-8859-1"?>
<!-- Generator: Adobe Illustrator 19.0.0, SVG Export Plug-In . SVG Version: 6.00 Build 0)  -->
<svg version="1.1" id="Capa_1" xmlns="http://www.w3.org/2000/svg" xmlns:xlink="http://www.w3.org/1999/xlink" x="0px" y="0px"
	 viewBox="0 0 498.834 498.834" style="enable-background:new 0 0 498.834 498.834;" xml:space="preserve">
<path style="fill:#A5C3D1;" d="M479.086,261.851c0,67.291-29.257,127.269-76.069,168.229c-35.109,30.72-81.92,51.2-131.657,54.126
	c-4.389,0-8.777,0-14.629,0c-62.903,0-118.491-26.331-159.451-67.291c-39.497-39.497-62.903-95.086-62.903-155.063
	c0-21.943,2.926-43.886,8.777-62.903c21.943-71.68,78.994-128.731,152.137-149.211c19.017-5.851,40.96-8.777,61.44-8.777
	c46.811,0,90.697,14.629,125.806,39.497C441.051,119.954,479.086,187.246,479.086,261.851z"/>
<path style="fill:#849DA9;" d="M479.086,261.851c0,67.291-29.257,127.269-77.531,168.229c-35.109,30.72-81.92,51.2-131.657,54.126
	c-4.389,0-8.777,0-14.629,0c-62.903,0-118.491-26.331-159.451-67.291c-17.554-19.017-32.183-39.497-43.886-64.366
	c38.034,24.869,84.846,39.497,133.12,39.497c5.851,0,10.24,0,16.091,0c55.589-2.926,106.789-24.869,144.823-59.977
	c51.2-45.349,84.846-111.177,84.846-185.783c0-7.314,0-13.166-1.463-20.48C461.531,163.84,479.086,210.651,479.086,261.851z"/>
<path d="M256.731,498.834c-130.194,0-236.983-106.789-236.983-236.983s106.789-235.52,236.983-235.52
	S493.714,133.12,493.714,263.314S386.926,498.834,256.731,498.834z M256.731,55.589c-114.103,0-207.726,93.623-207.726,207.726
	s93.623,206.263,207.726,206.263s207.726-93.623,207.726-207.726S370.834,55.589,256.731,55.589z"/>
<path style="fill:#77C587;" d="M195.291,49.737c-4.389,17.554-7.314,35.109-11.703,52.663
	c-11.703,36.571-39.497,65.829-67.291,92.16c-2.926,2.926-5.851,5.851-8.777,7.314c-7.314,4.389-16.091,2.926-24.869,1.463
	c-11.703-1.463-24.869-2.926-36.571-4.389C65.097,127.269,122.149,70.217,195.291,49.737z"/>
<path style="fill:#FFFFFF;" d="M271.36,484.206c-4.389,0-8.777,0-14.629,0c-62.903,0-118.491-26.331-159.451-67.291
	c4.389-2.926,8.777-5.851,14.629-8.777c24.869-13.166,55.589-13.166,84.846-13.166c2.926,0,5.851,0,8.777,1.463
	c5.851,1.463,10.24,7.314,14.629,11.703c8.777,11.703,19.017,23.406,27.794,36.571C256.731,456.411,266.971,469.577,271.36,484.206z
	"/>
<path style="fill:#77C587;" d="M479.086,261.851c0,67.291-29.257,127.269-76.069,168.229c-7.314-1.463-13.166-4.389-20.48-8.777
	c-19.017-11.703-32.183-30.72-45.349-48.274c-4.389-7.314-8.777-13.166-11.703-20.48c-8.777-20.48-4.389-42.423,2.926-62.903
	c5.851-20.48,14.629-40.96,16.091-62.903c0-8.777,0-17.554-2.926-26.331c-2.926-17.554-10.24-35.109-7.314-51.2
	c0-5.851-2.926-10.24-8.777-11.703l-36.571-5.851c-1.463,0-2.926,0-4.389-1.463c-1.463-2.926,1.463-5.851,4.389-7.314
	c16.091-10.24,35.109-13.166,54.126-19.017c14.629-4.389,30.72-10.24,42.423-20.48C441.051,119.954,479.086,187.246,479.086,261.851
	z"/>
<path style="fill:#08A650;" d="M479.086,261.851c0,67.291-29.257,127.269-77.531,168.229c-7.314-1.463-13.166-4.389-20.48-8.777
	c-19.017-11.703-32.183-30.72-45.349-48.274c-4.389-5.851-8.777-13.166-11.703-20.48c8.777-5.851,16.091-11.703,24.869-19.017
	c51.2-45.349,84.846-111.177,84.846-185.783c0-7.314,0-13.166-1.463-20.48C461.531,163.84,479.086,210.651,479.086,261.851z"/>
<path d="M405.943,446.171l-7.314-2.926c-10.24-2.926-17.554-5.851-24.869-10.24c-21.943-13.166-38.034-35.109-49.737-52.663
	c-4.389-7.314-10.24-14.629-14.629-23.406c-10.24-26.331-4.389-54.126,1.463-73.143c1.463-4.389,2.926-8.777,4.389-14.629
	c5.851-16.091,10.24-29.257,11.703-43.886c0-7.314,0-14.629-2.926-23.406c-1.463-4.389-1.463-7.314-2.926-11.703
	c-2.926-13.166-5.851-26.331-5.851-39.497l-32.183-5.851c-4.389-1.463-10.24-2.926-14.629-8.777
	c-5.851-10.24-2.926-21.943,8.777-27.794c14.629-8.777,29.257-13.166,45.349-17.554c4.389-1.463,8.777-2.926,11.703-2.926
	c11.703-2.926,26.331-8.777,36.571-17.554l8.777-7.314l11.703,4.389c64.366,43.886,102.4,117.029,102.4,194.56
	c0,68.754-29.257,134.583-81.92,178.469L405.943,446.171z M324.023,121.417h2.926c13.166,1.463,21.943,14.629,20.48,27.794
	c-1.463,10.24,1.463,21.943,4.389,33.646c1.463,4.389,1.463,8.777,2.926,13.166c1.463,11.703,2.926,20.48,2.926,30.72
	c-1.463,19.017-7.314,36.571-13.166,52.663c-1.463,4.389-2.926,8.777-4.389,13.166c-4.389,14.629-10.24,36.571-2.926,52.663
	c2.926,5.851,5.851,11.703,10.24,17.554c11.703,16.091,23.406,35.109,40.96,45.349c2.926,1.463,5.851,2.926,8.777,4.389
	c40.96-39.497,65.829-93.623,65.829-150.674c0-64.366-29.257-124.343-80.457-163.84c-13.166,8.777-26.331,13.166-38.034,16.091
	c-4.389,1.463-8.777,2.926-13.166,4.389C329.874,119.954,326.949,119.954,324.023,121.417z"/>
<path d="M256.731,498.834c-64.366,0-124.343-24.869-169.691-71.68l-11.703-13.166l14.629-10.24
	c4.389-2.926,10.24-5.851,14.629-8.777c24.869-13.166,54.126-14.629,80.457-14.629h11.703c2.926,0,7.314,0,11.703,1.463
	c10.24,2.926,16.091,10.24,20.48,16.091l29.257,36.571c8.777,11.703,20.48,26.331,26.331,43.886l4.389,17.554l-17.554,2.926
	C266.971,498.834,261.12,498.834,256.731,498.834z M122.149,419.84c35.109,30.72,78.994,48.274,125.806,49.737
	c-4.389-5.851-7.314-10.24-11.703-16.091l-27.794-36.571c-1.463-2.926-5.851-7.314-7.314-7.314s-2.926,0-4.389,0h-11.703
	C160.183,409.6,139.703,411.063,122.149,419.84z"/>
<path d="M91.429,212.114c-4.389,0-8.777,0-11.703-1.463c-11.703-1.463-24.869-2.926-36.571-4.389l-8.777-1.463l2.926-7.314
	C59.246,122.88,117.76,64.366,192.366,42.423l13.166-4.389L201.143,51.2c-1.463,7.314-2.926,16.091-4.389,24.869
	s-2.926,19.017-5.851,27.794c-11.703,39.497-43.886,70.217-68.754,95.086c-2.926,2.926-7.314,7.314-11.703,8.777
	C104.594,210.651,98.743,212.114,91.429,212.114z M53.394,193.097c8.777,1.463,19.017,2.926,27.794,2.926
	c7.314,1.463,16.091,1.463,20.48-1.463c2.926-1.463,4.389-2.926,7.314-5.851c26.331-24.869,55.589-54.126,65.829-90.697
	c2.926-8.777,4.389-17.554,5.851-26.331c1.463-2.926,2.926-7.314,2.926-11.703C123.611,81.92,73.874,131.657,53.394,193.097z"/>
<path style="fill:#F58570;" d="M246.491,128.731c0,62.903-112.64,196.023-112.64,196.023S19.749,191.634,19.749,128.731
	s51.2-112.64,112.64-112.64S246.491,67.291,246.491,128.731z"/>
<path d="M133.851,339.383c-4.389,0-8.777-1.463-11.703-5.851C110.446,318.903,5.12,194.56,5.12,127.269
	C5.12,57.051,62.171,0,132.389,0s127.269,57.051,127.269,127.269c0,65.829-105.326,191.634-117.029,206.263
	C141.166,337.92,138.24,339.383,133.851,339.383z M133.851,30.72c-54.126,0-98.011,43.886-98.011,98.011
	c0,42.423,62.903,128.731,98.011,172.617c35.109-43.886,98.011-131.657,98.011-172.617C231.863,74.606,187.977,30.72,133.851,30.72z
	"/>
<circle style="fill:#FFFFFF;" cx="133.851" cy="128.731" r="49.737"/>
<path d="M133.851,193.097c-35.109,0-64.366-29.257-64.366-64.366s29.257-64.366,64.366-64.366s64.366,29.257,64.366,64.366
	S168.96,193.097,133.851,193.097z M133.851,95.086c-19.017,0-35.109,16.091-35.109,35.109s16.091,35.109,35.109,35.109
	s35.109-16.091,35.109-35.109C167.497,109.714,152.869,95.086,133.851,95.086z"/>
<g>
</g>
<g>
</g>
<g>
</g>
<g>
</g>
<g>
</g>
<g>
</g>
<g>
</g>
<g>
</g>
<g>
</g>
<g>
</g>
<g>
</g>
<g>
</g>
<g>
</g>
<g>
</g>
<g>
</g>
</svg>
