<?xml version="1.0" encoding="iso-8859-1"?>
<!-- Generator: Adobe Illustrator 19.0.0, SVG Export Plug-In . SVG Version: 6.00 Build 0)  -->
<svg version="1.1" id="Capa_1" xmlns="http://www.w3.org/2000/svg" xmlns:xlink="http://www.w3.org/1999/xlink" x="0px" y="0px"
	 viewBox="0 0 497.371 497.371" style="enable-background:new 0 0 497.371 497.371;" xml:space="preserve">
<path style="fill:#030303;" d="M440.32,452.023c-8.777,0-14.629-5.851-14.629-14.629V234.057
	c0-98.011-78.994-177.006-177.006-177.006S71.68,136.046,71.68,234.057v203.337c0,8.777-5.851,14.629-14.629,14.629
	s-14.629-5.851-14.629-14.629V234.057c0-114.103,92.16-206.263,206.263-206.263s206.263,92.16,206.263,206.263v203.337
	C454.949,446.171,449.097,452.023,440.32,452.023z"/>
<path style="fill:#77C587;" d="M375.954,295.497c-19.017,0-35.109,16.091-35.109,35.109v112.64
	c0,19.017,16.091,35.109,35.109,35.109c19.017,0,35.109-16.091,35.109-35.109v-112.64
	C411.063,311.589,394.971,295.497,375.954,295.497z"/>
<path style="fill:#08A650;" d="M377.417,295.497v182.857c19.017-1.463,33.646-16.091,33.646-35.109v-112.64
	C411.063,311.589,396.434,296.96,377.417,295.497z"/>
<path style="fill:#F15E75;" d="M411.063,323.291v128.731c33.646-1.463,61.44-29.257,61.44-64.366
	C472.503,352.549,444.709,324.754,411.063,323.291z"/>
<path style="fill:#77C587;" d="M121.417,482.743c19.017,0,35.109-16.091,35.109-35.109v-112.64
	c0-19.017-16.091-35.109-35.109-35.109s-35.109,14.629-35.109,35.109v112.64C86.309,466.651,102.4,482.743,121.417,482.743z"/>
<path style="fill:#08A650;" d="M119.954,482.743V299.886c-19.017,1.463-33.646,16.091-33.646,35.109v112.64
	C86.309,466.651,100.937,481.28,119.954,482.743z"/>
<path style="fill:#F15E75;" d="M86.309,454.949V326.217c-33.646,1.463-61.44,29.257-61.44,64.366
	C24.869,425.691,52.663,453.486,86.309,454.949z"/>
<path style="fill:#FFCA19;" d="M364.251,118.491c-30.72-30.72-71.68-46.811-115.566-46.811s-83.383,16.091-115.566,46.811
	c-11.703,10.24-29.257,10.24-39.497,0c-10.24-11.703-10.24-29.257,0-39.497c42.423-42.423,96.549-64.366,155.063-64.366
	s112.64,21.943,155.063,62.903c11.703,10.24,11.703,29.257,0,39.497C392.046,128.731,374.491,128.731,364.251,118.491z"/>
<g>
	<path style="fill:#030303;" d="M114.103,140.434c-11.703,0-21.943-4.389-30.72-13.166c-16.091-17.554-16.091-43.886,0-59.977
		C127.269,23.406,185.783,0,248.686,0S368.64,23.406,413.989,67.291c16.091,16.091,17.554,43.886,0,59.977
		c-16.091,16.091-43.886,16.091-59.977,0c-27.794-27.794-65.829-42.423-105.326-42.423s-76.069,14.629-105.326,42.423
		C136.046,136.046,125.806,140.434,114.103,140.434z M248.686,29.257c-54.126,0-105.326,20.48-144.823,58.514
		c-5.851,5.851-5.851,13.166,0,19.017c4.389,5.851,14.629,5.851,19.017,0c33.646-33.646,77.531-51.2,125.806-51.2
		s92.16,17.554,125.806,51.2c4.389,4.389,14.629,4.389,19.017,0c5.851-5.851,5.851-13.166,0-19.017
		C354.011,49.737,302.811,29.257,248.686,29.257z"/>
	<path style="fill:#030303;" d="M375.954,497.371c-27.794,0-49.737-21.943-49.737-49.737v-112.64
		c0-27.794,21.943-49.737,49.737-49.737s49.737,21.943,49.737,49.737v112.64C425.691,475.429,403.749,497.371,375.954,497.371z
		 M375.954,314.514c-11.703,0-20.48,8.777-20.48,20.48v112.64c0,11.703,8.777,20.48,20.48,20.48s20.48-8.777,20.48-20.48v-112.64
		C396.434,323.291,387.657,314.514,375.954,314.514z"/>
	<path style="fill:#030303;" d="M411.063,469.577c-4.389,0-7.314-1.463-10.24-4.389c-2.926-2.926-4.389-5.851-4.389-10.24V326.217
		c0-4.389,1.463-7.314,4.389-10.24c2.926-2.926,7.314-4.389,10.24-4.389c42.423,1.463,76.069,36.571,76.069,78.994
		S453.486,468.114,411.063,469.577L411.063,469.577z M425.691,343.771v93.623c19.017-7.314,32.183-24.869,32.183-46.811
		C457.874,368.64,444.709,351.086,425.691,343.771z"/>
	<path style="fill:#030303;" d="M121.417,497.371c-27.794,0-49.737-21.943-49.737-49.737v-112.64
		c0-27.794,21.943-49.737,49.737-49.737s49.737,21.943,49.737,49.737v112.64C171.154,475.429,149.211,497.371,121.417,497.371z
		 M121.417,314.514c-11.703,0-20.48,8.777-20.48,20.48v112.64c0,11.703,8.777,20.48,20.48,20.48s20.48-8.777,20.48-20.48v-112.64
		C141.897,323.291,133.12,314.514,121.417,314.514z"/>
	<path style="fill:#030303;" d="M86.309,469.577L86.309,469.577c-42.423-1.463-76.069-36.571-76.069-78.994
		s33.646-77.531,76.069-78.994c4.389,0,7.314,1.463,10.24,4.389c2.926,2.926,4.389,5.851,4.389,10.24v128.731
		c0,4.389-1.463,7.314-4.389,10.24C93.623,468.114,90.697,469.577,86.309,469.577z M71.68,343.771
		c-19.017,7.314-32.183,24.869-32.183,46.811s13.166,39.497,32.183,46.811V343.771z"/>
</g>
<path style="fill:#A5C3D1;" d="M336.457,165.303v81.92c0,10.24-7.314,17.554-17.554,17.554h-59.977l-45.349,45.349l-21.943-45.349
	h-13.166c-10.24,0-17.554-7.314-17.554-17.554v-81.92c0-10.24,7.314-17.554,17.554-17.554h140.434
	C327.68,147.749,336.457,156.526,336.457,165.303z"/>
<path style="fill:#030303;" d="M210.651,324.754c-4.389-1.463-8.777-4.389-10.24-8.777l-17.554-36.571h-2.926
	c-17.554,0-32.183-14.629-32.183-32.183v-81.92c0-17.554,14.629-32.183,32.183-32.183h140.434c17.554,0,32.183,14.629,32.183,32.183
	v81.92c0,17.554-14.629,32.183-32.183,32.183H266.24l-42.423,40.96C219.429,323.291,215.04,324.754,210.651,324.754z
	 M178.469,162.377c-1.463,0-2.926,1.463-2.926,2.926v81.92c0,1.463,1.463,2.926,2.926,2.926h13.166
	c5.851,0,10.24,2.926,13.166,8.777l13.166,26.331l30.72-30.72c2.926-2.926,5.851-4.389,10.24-4.389h59.977
	c1.463,0,2.926-1.463,2.926-2.926v-81.92c0-1.463-1.463-2.926-2.926-2.926L178.469,162.377L178.469,162.377z"/>
<g>
	<rect x="194.56" y="191.634" style="fill:#FFFFFF;" width="26.331" height="29.257"/>
	<rect x="235.52" y="191.634" style="fill:#FFFFFF;" width="26.331" height="29.257"/>
	<rect x="276.48" y="191.634" style="fill:#FFFFFF;" width="26.331" height="29.257"/>
</g>
<g>
</g>
<g>
</g>
<g>
</g>
<g>
</g>
<g>
</g>
<g>
</g>
<g>
</g>
<g>
</g>
<g>
</g>
<g>
</g>
<g>
</g>
<g>
</g>
<g>
</g>
<g>
</g>
<g>
</g>
</svg>
